<mxfile host="app.diagrams.net" modified="2024-01-07T03:52:18.446Z" agent="Mozilla/5.0 (Windows NT 10.0; Win64; x64) AppleWebKit/537.36 (KHTML, like Gecko) Chrome/120.0.0.0 Safari/537.36 Edg/120.0.0.0" etag="5yK6F9XLH5r36DLxUxrb" version="22.1.17" type="github">
  <diagram name="hbase数据模型" id="8cgrmLcbq0KiKvhiipVd">
    <mxGraphModel dx="960" dy="613" grid="1" gridSize="10" guides="1" tooltips="1" connect="1" arrows="1" fold="1" page="1" pageScale="1" pageWidth="827" pageHeight="1169" math="0" shadow="0">
      <root>
        <mxCell id="0" />
        <mxCell id="1" parent="0" />
        <mxCell id="kyXKzNRfWpc8Jk6LLHsm-1" value="" style="rounded=1;whiteSpace=wrap;html=1;fillColor=#FFFFCC;" vertex="1" parent="1">
          <mxGeometry x="40" y="40" width="760" height="560" as="geometry" />
        </mxCell>
        <mxCell id="kyXKzNRfWpc8Jk6LLHsm-2" value="&lt;font style=&quot;font-size: 18px;&quot;&gt;HBase数据模型&lt;/font&gt;" style="text;html=1;strokeColor=none;fillColor=none;align=center;verticalAlign=middle;whiteSpace=wrap;rounded=0;" vertex="1" parent="1">
          <mxGeometry x="40" width="140" height="30" as="geometry" />
        </mxCell>
        <mxCell id="kyXKzNRfWpc8Jk6LLHsm-3" value="&lt;font style=&quot;font-size: 18px;&quot;&gt;&lt;b&gt;Namespace&lt;/b&gt;&lt;/font&gt;" style="text;html=1;strokeColor=none;fillColor=none;align=center;verticalAlign=middle;whiteSpace=wrap;rounded=0;" vertex="1" parent="1">
          <mxGeometry x="80" y="80" width="100" height="30" as="geometry" />
        </mxCell>
        <mxCell id="kyXKzNRfWpc8Jk6LLHsm-4" value="&lt;font style=&quot;font-size: 18px;&quot;&gt;hbase&lt;/font&gt;" style="rounded=1;whiteSpace=wrap;html=1;fillColor=#E6FFCC;" vertex="1" parent="1">
          <mxGeometry x="120" y="490" width="600" height="60" as="geometry" />
        </mxCell>
        <mxCell id="kyXKzNRfWpc8Jk6LLHsm-5" value="&lt;font style=&quot;font-size: 18px;&quot;&gt;default&lt;/font&gt;" style="rounded=1;whiteSpace=wrap;html=1;fillColor=#E6FFCC;" vertex="1" parent="1">
          <mxGeometry x="120" y="390" width="600" height="60" as="geometry" />
        </mxCell>
        <mxCell id="kyXKzNRfWpc8Jk6LLHsm-6" value="" style="rounded=1;whiteSpace=wrap;html=1;fillColor=#E6FFCC;" vertex="1" parent="1">
          <mxGeometry x="114" y="120" width="600" height="230" as="geometry" />
        </mxCell>
        <mxCell id="kyXKzNRfWpc8Jk6LLHsm-7" value="&lt;font style=&quot;font-size: 18px;&quot;&gt;bigdata&lt;/font&gt;" style="text;html=1;strokeColor=none;fillColor=none;align=center;verticalAlign=middle;whiteSpace=wrap;rounded=0;" vertex="1" parent="1">
          <mxGeometry x="384" y="120" width="60" height="30" as="geometry" />
        </mxCell>
        <mxCell id="kyXKzNRfWpc8Jk6LLHsm-9" value="&lt;font style=&quot;font-size: 18px;&quot;&gt;table1&lt;/font&gt;" style="rounded=1;whiteSpace=wrap;html=1;fillColor=#CCFFE6;" vertex="1" parent="1">
          <mxGeometry x="130" y="150" width="170" height="170" as="geometry" />
        </mxCell>
        <mxCell id="kyXKzNRfWpc8Jk6LLHsm-11" value="&lt;font style=&quot;font-size: 18px;&quot;&gt;&lt;b&gt;table&lt;/b&gt;&lt;/font&gt;" style="text;html=1;strokeColor=none;fillColor=none;align=center;verticalAlign=middle;whiteSpace=wrap;rounded=0;" vertex="1" parent="1">
          <mxGeometry x="150" y="120" width="60" height="30" as="geometry" />
        </mxCell>
        <mxCell id="kyXKzNRfWpc8Jk6LLHsm-74" value="&lt;font style=&quot;font-size: 18px;&quot;&gt;table2&lt;/font&gt;" style="rounded=1;whiteSpace=wrap;html=1;fillColor=#CCFFE6;" vertex="1" parent="1">
          <mxGeometry x="335" y="150" width="170" height="170" as="geometry" />
        </mxCell>
        <mxCell id="kyXKzNRfWpc8Jk6LLHsm-75" value="&lt;font style=&quot;font-size: 18px;&quot;&gt;table3&lt;/font&gt;" style="rounded=1;whiteSpace=wrap;html=1;fillColor=#CCFFE6;" vertex="1" parent="1">
          <mxGeometry x="530" y="150" width="170" height="170" as="geometry" />
        </mxCell>
      </root>
    </mxGraphModel>
  </diagram>
</mxfile>
